<?xml version="1.0" standalone="no"?>
<!DOCTYPE svg PUBLIC "-//W3C//DTD SVG 20010904//EN"
 "http://www.w3.org/TR/2001/REC-SVG-20010904/DTD/svg10.dtd">
<svg version="1.0" xmlns="http://www.w3.org/2000/svg"
 width="512.000000pt" height="512.000000pt" viewBox="0 0 512.000000 512.000000"
 preserveAspectRatio="xMidYMid meet">

<g transform="translate(0.000000,512.000000) scale(0.100000,-0.100000)"
fill="#000000" stroke="none">
<path d="M2391 4510 c-305 -43 -577 -177 -790 -391 -189 -189 -314 -419 -374
-689 -30 -136 -30 -404 0 -540 122 -550 529 -952 1083 -1067 117 -24 380 -24
502 0 550 110 968 529 1085 1087 26 125 24 392 -4 520 -121 545 -536 957
-1074 1065 -91 19 -341 27 -428 15z m334 -325 c564 -92 955 -634 860 -1191
-40 -233 -144 -426 -316 -589 -400 -379 -1018 -379 -1418 0 -93 89 -150 163
-207 269 -165 310 -165 662 0 972 209 393 644 610 1081 539z"/>
<path d="M2365 1313 c-591 -50 -1113 -280 -1559 -685 l-59 -53 112 -110 c62
-61 114 -112 116 -114 2 -2 40 30 85 70 464 421 1080 626 1710 568 482 -44
957 -255 1305 -581 36 -33 67 -59 70 -57 2 2 54 53 116 114 l112 110 -59 54
c-431 395 -954 628 -1529 681 -102 9 -327 11 -420 3z"/>
</g>
</svg>
