<?xml version="1.0" standalone="no"?>
<!DOCTYPE svg PUBLIC "-//W3C//DTD SVG 20010904//EN"
 "http://www.w3.org/TR/2001/REC-SVG-20010904/DTD/svg10.dtd">
<svg version="1.0" xmlns="http://www.w3.org/2000/svg"
 width="512.000000pt" height="512.000000pt" viewBox="0 0 512.000000 512.000000"
 preserveAspectRatio="xMidYMid meet">

<g transform="translate(0.000000,512.000000) scale(0.100000,-0.100000)"
fill="#000000" stroke="none">
<path d="M1006 4130 c-42 -13 -85 -58 -97 -104 -14 -52 10 -117 54 -148 l32
-23 1580 -5 1580 -5 63 -29 c118 -55 212 -188 212 -301 l0 -45 -1708 0 c-1631
0 -1709 -1 -1742 -18 -48 -25 -84 -96 -74 -147 8 -45 47 -93 91 -111 27 -12
319 -14 1733 -14 l1700 0 0 -815 c0 -801 0 -815 -21 -870 -29 -78 -111 -164
-191 -201 l-63 -29 -1590 0 -1590 0 -62 29 c-73 34 -153 113 -186 183 l-22 48
-5 1005 c-5 982 -5 1006 -25 1039 -29 49 -79 73 -138 68 -40 -3 -56 -11 -85
-41 l-37 -36 -3 -1003 c-3 -1122 -5 -1078 68 -1225 92 -182 266 -311 470 -348
111 -20 3119 -20 3230 0 255 46 456 232 520 482 19 74 20 115 20 1089 0 974
-1 1015 -20 1089 -63 249 -265 436 -520 482 -61 11 -365 13 -1610 13 -844 0
-1548 -5 -1564 -9z"/>
<path d="M1055 2720 c-23 -11 -50 -35 -60 -52 -19 -31 -20 -53 -20 -438 0
-450 0 -449 68 -490 30 -19 53 -20 442 -20 l410 0 36 24 c20 14 41 38 48 53 8
21 11 142 9 445 l-3 416 -25 27 c-49 54 -58 55 -477 55 -368 0 -390 -1 -428
-20z m653 -492 l-3 -223 -220 0 -220 0 -3 223 -2 222 225 0 225 0 -2 -222z"/>
<path d="M2490 2352 c-46 -23 -73 -72 -72 -130 0 -48 19 -82 66 -116 27 -21
36 -21 784 -21 737 0 758 1 790 20 43 26 76 95 69 142 -8 46 -30 79 -70 103
-31 19 -56 20 -782 20 -694 0 -753 -1 -785 -18z"/>
</g>
</svg>
