<?xml version="1.0" standalone="no"?>
<!DOCTYPE svg PUBLIC "-//W3C//DTD SVG 20010904//EN"
 "http://www.w3.org/TR/2001/REC-SVG-20010904/DTD/svg10.dtd">
<svg version="1.0" xmlns="http://www.w3.org/2000/svg"
 width="512.000000pt" height="512.000000pt" viewBox="0 0 512.000000 512.000000"
 preserveAspectRatio="xMidYMid meet">

<g transform="translate(0.000000,512.000000) scale(0.100000,-0.100000)"
fill="#000000" stroke="none">
<path d="M1795 4996 c-133 -42 -231 -134 -373 -351 -57 -88 -125 -181 -150
-208 -55 -56 -91 -71 -324 -132 -190 -50 -278 -84 -361 -139 -112 -75 -173
-168 -198 -303 -5 -28 -8 -174 -7 -325 l3 -273 -28 -52 c-15 -29 -77 -115
-138 -190 -192 -239 -223 -307 -217 -485 3 -93 8 -124 29 -174 33 -80 97 -173
209 -309 50 -60 104 -130 118 -155 l27 -45 -3 -271 c-2 -209 0 -287 12 -341
47 -226 179 -330 533 -419 280 -71 292 -79 443 -319 137 -217 217 -300 339
-358 55 -26 79 -31 166 -35 125 -6 198 11 416 96 205 80 254 90 346 69 39 -9
140 -43 225 -75 212 -81 235 -87 368 -87 111 0 117 1 179 34 114 59 211 164
337 366 37 61 93 135 124 166 61 62 85 72 315 133 249 66 338 109 435 213 61
65 93 131 111 230 5 28 8 174 7 325 l-3 273 27 51 c15 29 77 114 138 190 189
236 220 302 220 464 0 156 -31 228 -189 428 -101 128 -143 193 -162 247 -11
31 -14 109 -14 340 0 284 -1 303 -22 366 -45 132 -143 227 -294 288 -41 16
-147 48 -237 71 -186 46 -236 67 -289 119 -40 39 -42 41 -178 250 -109 167
-185 245 -290 297 -72 36 -86 39 -180 42 -126 5 -199 -12 -416 -96 -201 -78
-249 -89 -331 -72 -35 6 -144 42 -243 80 -99 37 -204 73 -233 79 -69 14 -197
13 -247 -3z m367 -375 c223 -87 293 -104 413 -104 121 -1 170 12 399 100 137
53 185 67 244 71 66 4 75 2 110 -22 41 -29 95 -100 215 -286 156 -243 248
-305 576 -390 202 -52 261 -76 295 -123 20 -28 21 -39 18 -295 -4 -428 11
-476 241 -772 97 -125 137 -194 137 -237 0 -50 -45 -125 -161 -269 -129 -161
-180 -241 -212 -334 -21 -62 -22 -81 -22 -372 0 -295 -1 -307 -21 -335 -40
-54 -95 -77 -389 -157 -268 -74 -347 -135 -530 -411 -62 -94 -134 -190 -159
-213 -41 -38 -51 -42 -95 -42 -33 0 -88 14 -163 41 -496 180 -516 180 -953 8
-97 -38 -119 -43 -192 -44 l-82 0 -42 40 c-23 22 -93 119 -157 215 -196 299
-271 353 -597 436 -196 50 -278 84 -310 127 -19 28 -20 40 -17 302 4 387 -12
445 -179 651 -175 215 -219 286 -219 352 0 51 39 115 162 268 129 161 179 241
211 334 21 62 22 81 22 370 0 353 -3 340 96 390 33 17 147 53 252 81 239 63
347 112 435 198 35 34 108 132 176 234 69 105 136 193 164 218 47 41 47 41
112 36 48 -3 107 -21 222 -66z"/>
<path d="M3387 3286 c-44 -16 -39 -11 -665 -626 -249 -245 -457 -445 -461
-445 -5 0 -117 104 -250 232 -257 248 -279 263 -356 249 -23 -5 -53 -22 -78
-45 -37 -35 -41 -43 -45 -99 -3 -48 0 -68 14 -91 34 -52 632 -620 661 -628 42
-11 96 -7 125 8 36 19 1227 1188 1244 1221 22 42 18 119 -9 158 -41 62 -115
89 -180 66z"/>
</g>
</svg>
