<?xml version="1.0" standalone="no"?>
<!DOCTYPE svg PUBLIC "-//W3C//DTD SVG 20010904//EN"
 "http://www.w3.org/TR/2001/REC-SVG-20010904/DTD/svg10.dtd">
<svg version="1.0" xmlns="http://www.w3.org/2000/svg"
 width="512.000000pt" height="512.000000pt" viewBox="0 0 512.000000 512.000000"
 preserveAspectRatio="xMidYMid meet">

<g transform="translate(0.000000,512.000000) scale(0.100000,-0.100000)"
fill="#000000" stroke="none">
<path d="M2250 4145 c-168 -35 -287 -99 -413 -223 -134 -131 -216 -305 -234
-494 l-6 -67 -508 -3 c-495 -3 -508 -4 -535 -24 -53 -39 -69 -71 -69 -134 0
-63 16 -95 69 -134 27 -20 41 -21 599 -26 l572 -5 790 -475 c787 -473 790
-475 845 -475 55 0 59 2 742 413 377 226 689 412 692 412 3 0 6 -271 6 -603 0
-654 0 -659 -56 -769 -34 -67 -135 -168 -202 -202 -114 -58 -77 -56 -1182 -56
-1109 0 -1073 -2 -1184 58 -68 36 -167 135 -200 200 -43 85 -56 154 -56 298 0
120 -2 134 -23 165 -12 18 -38 44 -57 56 l-34 23 -612 -2 c-601 -3 -613 -3
-640 -24 -53 -39 -69 -71 -69 -134 0 -63 16 -95 69 -134 27 -20 40 -21 537
-24 l509 -3 0 -33 c0 -55 26 -176 54 -250 76 -201 254 -381 454 -458 151 -59
131 -58 1252 -58 1125 0 1100 -1 1257 59 195 76 374 258 449 457 54 143 54
146 54 1084 0 710 -3 882 -14 943 -63 326 -317 580 -644 643 -105 20 -2113 19
-2212 -1z m2183 -320 c89 -23 156 -62 223 -129 95 -95 144 -212 144 -343 l0
-62 -720 -432 -720 -432 -720 432 -720 432 0 62 c0 131 49 249 144 342 68 67
136 107 217 129 82 22 2068 23 2152 1z"/>
<path d="M95 2706 c-67 -29 -105 -106 -91 -181 9 -47 59 -102 104 -115 25 -8
329 -10 954 -8 908 3 917 3 944 24 53 39 69 71 69 134 0 63 -16 95 -69 134
-27 21 -36 21 -954 23 -755 2 -933 0 -957 -11z"/>
</g>
</svg>
