<?xml version="1.0" standalone="no"?>
<!DOCTYPE svg PUBLIC "-//W3C//DTD SVG 20010904//EN"
 "http://www.w3.org/TR/2001/REC-SVG-20010904/DTD/svg10.dtd">
<svg version="1.0" xmlns="http://www.w3.org/2000/svg"
 width="512.000000pt" height="512.000000pt" viewBox="0 0 512.000000 512.000000"
 preserveAspectRatio="xMidYMid meet">

<g transform="translate(0.000000,512.000000) scale(0.100000,-0.100000)"
fill="#000000" stroke="none">
<path d="M2295 4855 c-376 -55 -731 -228 -1003 -490 -123 -117 -195 -204 -282
-335 -153 -234 -262 -545 -287 -821 l-8 -83 -87 -17 c-48 -9 -110 -30 -138
-45 -68 -37 -133 -111 -162 -182 -20 -51 -22 -72 -21 -195 4 -256 79 -712 138
-829 63 -126 183 -200 325 -199 96 1 232 26 294 54 110 51 184 147 207 270 9
51 4 103 -47 460 -33 240 -64 423 -76 454 -36 96 -119 177 -220 213 l-53 19 3
63 c8 151 71 383 152 555 195 414 559 736 1000 884 346 115 728 113 1079 -7
496 -170 891 -567 1055 -1064 40 -122 73 -278 78 -368 l3 -63 -53 -19 c-96
-34 -163 -95 -212 -190 -30 -60 -144 -835 -135 -920 9 -74 44 -149 99 -208 43
-46 137 -102 170 -102 25 0 27 -15 11 -92 -108 -519 -488 -947 -994 -1119 -84
-29 -269 -69 -317 -69 l-24 0 22 43 c19 35 23 58 23 132 0 78 -4 97 -28 147
-68 139 -226 213 -375 174 -105 -26 -182 -90 -226 -185 -32 -69 -30 -208 4
-276 35 -72 105 -138 176 -166 56 -23 70 -24 279 -24 189 1 234 4 318 23 517
115 924 429 1151 887 69 139 115 272 142 409 l17 85 52 0 c69 -1 109 8 168 38
69 34 129 93 160 156 42 86 127 571 143 814 8 117 -10 201 -57 275 -61 95
-135 141 -268 167 l-85 17 -13 112 c-39 348 -181 685 -403 957 -85 103 -253
261 -360 337 -110 78 -287 172 -419 223 -109 42 -302 90 -421 105 -114 14
-384 11 -495 -5z"/>
</g>
</svg>
