<?xml version="1.0" standalone="no"?>
<!DOCTYPE svg PUBLIC "-//W3C//DTD SVG 20010904//EN"
 "http://www.w3.org/TR/2001/REC-SVG-20010904/DTD/svg10.dtd">
<svg version="1.0" xmlns="http://www.w3.org/2000/svg"
 width="512.000000pt" height="512.000000pt" viewBox="0 0 512.000000 512.000000"
 preserveAspectRatio="xMidYMid meet">

<g transform="translate(0.000000,512.000000) scale(0.100000,-0.100000)"
fill="#000000" stroke="none">
<path d="M2495 4706 c-16 -8 -510 -495 -1097 -1083 -1160 -1161 -1091 -1086
-1073 -1180 9 -49 69 -109 118 -118 94 -18 25 -81 1115 1008 l1002 1002 640
-640 640 -640 0 -1207 0 -1208 -1280 0 -1280 0 -2 829 c-3 820 -3 830 -24 857
-39 53 -71 69 -134 69 -63 0 -95 -16 -134 -69 -21 -27 -21 -34 -21 -966 0
-932 0 -939 21 -966 11 -15 33 -37 48 -48 27 -21 28 -21 1526 -21 1498 0 1499
0 1526 21 15 11 37 33 48 48 21 27 21 34 24 1184 l2 1156 203 -201 c218 -217
229 -224 314 -208 49 9 109 69 118 118 18 94 87 19 -1073 1181 -625 625 -1080
1074 -1099 1082 -40 17 -89 17 -128 0z"/>
</g>
</svg>
