<?xml version="1.0" standalone="no"?>
<!DOCTYPE svg PUBLIC "-//W3C//DTD SVG 20010904//EN"
 "http://www.w3.org/TR/2001/REC-SVG-20010904/DTD/svg10.dtd">
<svg version="1.0" xmlns="http://www.w3.org/2000/svg"
 width="512.000000pt" height="512.000000pt" viewBox="0 0 512.000000 512.000000"
 preserveAspectRatio="xMidYMid meet">

<g transform="translate(0.000000,512.000000) scale(0.100000,-0.100000)"
fill="#000000" stroke="none">
<path d="M2460 5087 c-30 -13 -572 -273 -1203 -578 -938 -452 -1156 -561
-1187 -592 -96 -97 -86 -274 20 -357 19 -16 211 -112 425 -215 215 -103 391
-188 392 -189 2 -2 -178 -90 -399 -197 -441 -212 -461 -225 -491 -318 -21 -67
-21 -95 0 -162 30 -93 50 -106 491 -318 221 -107 401 -195 399 -197 -1 -1
-177 -86 -392 -189 -214 -103 -406 -199 -425 -215 -106 -83 -116 -260 -20
-357 31 -31 249 -140 1187 -592 631 -305 1173 -565 1203 -578 70 -29 130 -29
200 0 30 13 259 122 509 242 399 193 455 223 466 249 16 37 9 61 -23 87 -18
14 -34 18 -52 14 -14 -4 -234 -108 -490 -232 -396 -193 -472 -226 -510 -226
-39 0 -200 75 -1205 561 -764 370 -1168 570 -1183 587 -25 30 -28 64 -8 104
12 22 93 65 466 245 378 183 455 217 473 208 12 -5 328 -157 702 -338 l680
-329 75 0 75 0 680 329 c374 181 690 333 702 338 18 9 95 -25 473 -208 477
-230 480 -232 480 -298 0 -14 -12 -39 -27 -55 -19 -19 -211 -116 -563 -285
-294 -142 -542 -264 -550 -272 -7 -7 -14 -30 -14 -50 0 -40 30 -74 66 -74 11
0 270 120 575 268 611 294 616 297 648 399 30 95 -1 205 -75 263 -19 16 -210
112 -425 215 -214 103 -391 188 -392 189 -2 2 178 90 399 197 441 212 461 225
491 318 21 67 21 95 0 162 -30 93 -50 106 -491 318 -221 107 -401 195 -399
197 1 1 178 86 392 189 215 103 406 199 425 215 74 58 105 168 75 263 -32 102
-33 103 -689 420 -328 158 -605 287 -616 287 -29 0 -70 -44 -70 -73 0 -14 8
-34 18 -46 9 -11 278 -147 597 -300 372 -180 588 -290 603 -306 12 -14 22 -37
22 -51 0 -69 45 -45 -1203 -647 -820 -396 -1184 -567 -1207 -567 -23 0 -387
171 -1207 567 -1248 602 -1203 578 -1203 647 0 14 10 37 23 51 14 17 418 217
1182 587 1005 486 1166 561 1205 561 38 0 109 -31 473 -208 257 -125 440 -208
458 -208 64 0 93 77 47 120 -23 21 -828 413 -902 439 -55 20 -113 17 -176 -9z
m-844 -2273 c936 -452 872 -424 945 -424 72 0 -18 -41 1015 459 l460 222 440
-211 c459 -221 494 -242 494 -300 0 -19 -10 -41 -27 -59 -36 -38 -2340 -1151
-2383 -1151 -43 0 -2347 1113 -2382 1151 -35 37 -36 78 -4 115 15 19 169 98
462 240 242 117 442 213 445 213 3 1 244 -114 535 -255z"/>
</g>
</svg>
