<svg width="77" height="16" viewBox="0 0 77 16" fill="none" xmlns="http://www.w3.org/2000/svg">
<path fill-rule="evenodd" clip-rule="evenodd" d="M0 7.5C0 11.833 0.422 15 1 15C1.578 15 2 11.833 2 7.5C2 3.167 1.578 0 1 0C0.422 0 0 3.167 0 7.5ZM17.635 2.073C14.12 4.837 13.893 11.111 17.223 13.443C19.723 15.195 24.561 15.52 25.5 14C25.865 13.409 24.744 13 22.759 13C18.713 13 17 11.499 17 7.955C17 4.305 20.053 1.724 23.382 2.56C24.888 2.938 26 2.795 26 2.225C26 1.384 22.936 0.059 20.885 0.014C20.547 0.006 19.084 0.933 17.635 2.073ZM29.667 0.667C28.587 1.747 28.895 15 30 15C30.55 15 31 13.875 31 12.5C31 9.168 33.314 9.287 35.835 12.748C38.287 16.115 39.804 15.156 37.526 11.679C36.445 10.031 36.249 8.964 36.946 8.534C37.526 8.175 38 6.547 38 4.916C38 2.653 37.393 1.72 35.435 0.975C32.435 -0.165 30.597 -0.264 29.667 0.667ZM43.923 2.923C41.402 5.444 40.921 6.579 41.441 8.775C42.822 14.612 49.584 16.9 53.811 12.961C58.021 9.039 55.701 1.843 49.775 0.441C47.579 -0.079 46.444 0.402 43.923 2.923ZM70.667 0.667C70.3 1.033 70 3.379 70 5.879V10.425L65.216 5.712C62.584 3.121 60.109 1 59.716 1C59.322 1 59 4.15 59 8C59 12 59.429 15 60 15C60.55 15 61 12.653 61 9.784V4.568L66.5 10L72 15.432V7.716C72 -0.0279999 71.898 -0.565 70.667 0.667ZM34.848 2.885C36.87 4.167 35.799 7.454 33.24 7.82C31.453 8.074 31 7.653 31 5.736C31 2.178 32.26 1.245 34.848 2.885ZM51.777 3.557C54.226 5.272 54.789 9.811 52.8 11.8C48.927 15.673 41.551 10.614 44.079 5.817C46.25 1.695 48.272 1.101 51.777 3.557ZM6.223 7.557C3.777 9.269 3.34 11.94 5.2 13.8C6.708 15.308 11 15.377 11 13.893C11 13.284 10.339 13.04 9.532 13.349C6.611 14.47 7.103 12.2 10.046 10.981C12.916 9.792 12.982 9.638 11.378 7.865C9.331 5.603 9.037 5.586 6.223 7.557ZM10 8.893C10 9.907 6.954 11.288 6.257 10.59C6.005 10.339 6.096 9.653 6.459 9.067C7.257 7.776 10 7.641 10 8.893ZM75 14C75 14.55 75.45 15 76 15C76.55 15 77 14.55 77 14C77 13.45 76.55 13 76 13C75.45 13 75 13.45 75 14Z" fill="black"/>
</svg>
