<?xml version="1.0" standalone="no"?>
<!DOCTYPE svg PUBLIC "-//W3C//DTD SVG 20010904//EN"
 "http://www.w3.org/TR/2001/REC-SVG-20010904/DTD/svg10.dtd">
<svg version="1.0" xmlns="http://www.w3.org/2000/svg"
 width="512.000000pt" height="512.000000pt" viewBox="0 0 512.000000 512.000000"
 preserveAspectRatio="xMidYMid meet">

<g transform="translate(0.000000,512.000000) scale(0.100000,-0.100000)"
fill="#000000" stroke="none">
<path d="M890 4667 c-106 -32 -184 -79 -271 -166 -87 -87 -139 -173 -168 -281
-21 -73 -21 -93 -21 -1230 0 -1266 -2 -1217 60 -1342 67 -135 166 -235 295
-299 131 -65 167 -69 625 -69 l405 -1 295 -395 c192 -257 309 -404 334 -422
35 -24 49 -27 116 -27 67 0 81 3 116 27 25 18 142 165 334 422 l295 395 405 1
c458 0 494 4 625 69 129 64 228 164 295 299 62 125 60 76 60 1338 0 1114 -1
1153 -20 1228 -29 116 -73 189 -170 286 -95 96 -163 137 -280 169 -74 21 -86
21 -1665 20 l-1590 0 -75 -22z m3272 -430 c31 -18 57 -44 75 -75 l28 -47 3
-1095 c2 -764 0 -1110 -8 -1146 -12 -56 -55 -115 -103 -142 -29 -15 -82 -18
-522 -22 l-490 -5 -45 -25 c-38 -21 -85 -79 -290 -352 -135 -180 -247 -327
-250 -327 -3 0 -115 147 -250 327 -205 273 -252 331 -290 352 l-45 25 -490 5
c-440 4 -493 7 -522 22 -48 27 -91 86 -103 142 -8 36 -10 382 -8 1146 l3 1095
27 47 c29 48 79 86 132 99 17 4 722 6 1566 6 l1535 -2 47 -28z"/>
<path d="M1611 3174 c-132 -66 -157 -229 -51 -334 105 -106 268 -81 334 51 44
89 30 176 -40 246 -68 68 -154 81 -243 37z"/>
<path d="M2480 3184 c-107 -46 -159 -174 -115 -282 64 -151 273 -171 369 -34
40 57 48 149 18 208 -54 104 -172 151 -272 108z"/>
<path d="M3342 3189 c-19 -6 -53 -30 -77 -53 -70 -70 -83 -155 -39 -245 67
-134 244 -158 342 -45 146 165 -11 404 -226 343z"/>
</g>
</svg>
