<svg width="400" height="448" viewBox="0 0 400 448" fill="none" xmlns="http://www.w3.org/2000/svg">
<path fill-rule="evenodd" clip-rule="evenodd" d="M205 0.687018C189.425 1.85702 167.279 6.49502 150.5 12.101C138.706 16.041 111.735 29.36 101 36.544C31.442 83.097 -6.591 162.437 1.074 245C8.788 328.091 63.298 401.047 140.707 431.883C223.87 465.012 317.755 445.923 381.079 383.01C396.547 367.643 399.5 363.675 399.5 358.26C399.5 354.489 398.997 353.386 396.093 350.792C392.355 347.452 392.877 347.472 374.5 349.979C363.843 351.434 342.004 351.18 330.128 349.465C227.413 334.626 160.297 234.033 185.582 132.817C196.453 89.301 223.638 52.118 263.201 26.652C272.699 20.539 274 18.952 274 13.489C274 7.77102 270.06 4.51702 261.451 3.12302C244.957 0.451019 221.578 -0.557982 205 0.687018ZM155.542 75.25C129.661 126.697 124.345 182.787 140.117 238C157.374 298.413 201.148 349.972 258.5 377.44C264.55 380.337 273.009 383.967 277.298 385.506C281.588 387.044 284.738 388.657 284.298 389.09C283.225 390.147 268.007 394.505 258.602 396.447C188.906 410.843 115.692 380.066 76.748 320C23.976 238.608 46.264 131.164 127.121 77.161C135.832 71.342 159.54 59.255 162.608 59.068C163.218 59.03 160.038 66.313 155.542 75.25Z" fill="black"/>
</svg>
