<svg width="320" height="512" viewBox="0 0 320 512" fill="none" xmlns="http://www.w3.org/2000/svg">
<path fill-rule="evenodd" clip-rule="evenodd" d="M145 0.592972C137.121 1.53397 122.209 4.36797 116.544 6.00297C57.866 22.928 15.056 69.689 2.777 130.268L0.5 141.5V255.5C0.5 362.322 0.617002 370.13 2.357 379.5C9.283 416.789 28.989 451.034 56.808 474.119C78.582 492.188 102.643 503.674 130.272 509.189C146.275 512.383 173.653 512.398 189.557 509.222C255.807 495.99 305.322 445.843 317.643 379.5C319.383 370.131 319.5 362.335 319.5 256C319.5 149.665 319.383 141.869 317.643 132.5C305.384 66.491 255.898 16.08 190.5 2.97997C180.818 1.04097 153.331 -0.401028 145 0.592972ZM187 34.894C219.871 42.388 247.981 61.648 266.697 89.5C275.132 102.053 282.047 118.667 285.633 135C287.394 143.018 287.5 149.882 287.5 256C287.5 362.118 287.394 368.982 285.633 377C282.047 393.333 275.132 409.947 266.697 422.5C261.089 430.844 259.013 433.322 249.677 442.807C232.739 460.014 210.164 472.16 185 477.606C172.39 480.336 145.829 480.127 133.389 477.2C82.299 465.183 45.57 428.016 34.367 377C32.606 368.982 32.5 362.118 32.5 256C32.5 149.882 32.606 143.018 34.367 135C41.835 100.991 61.17 72.341 89.5 53.303C104.834 42.999 127.02 34.821 145.5 32.662C154.15 31.651 178.524 32.962 187 34.894ZM153.45 97.351C149.405 99.187 145.221 104.289 144.489 108.279C144.164 110.051 144.034 127.33 144.199 146.678C144.488 180.401 144.585 181.971 146.562 184.616C150.481 189.863 153.677 191.5 160 191.5C166.324 191.5 169.52 189.862 173.438 184.615C175.436 181.94 175.5 180.672 175.5 144C175.5 107.328 175.436 106.06 173.438 103.385C172.304 101.866 170.2 99.745 168.763 98.672C165.453 96.201 157.498 95.515 153.45 97.351Z" fill="black"/>
</svg>
