<?xml version="1.0" ?><!DOCTYPE svg  PUBLIC '-//W3C//DTD SVG 1.1//EN'  'http://www.w3.org/Graphics/SVG/1.1/DTD/svg11.dtd'><svg enable-background="new 0 0 24 24" height="24px" id="Layer_1" version="1.1" viewBox="0 0 24 24" width="24px" xml:space="preserve" xmlns="http://www.w3.org/2000/svg" xmlns:xlink="http://www.w3.org/1999/xlink"><g><g><g><path d="M20.8,23.4C20.8,23.4,20.8,23.4,20.8,23.4h-5.4c-0.3,0-0.5-0.2-0.5-0.5c0-1.6-1.3-2.9-2.9-2.9c-1.6,0-2.9,1.3-2.9,2.9     c0,0.3-0.2,0.5-0.5,0.5H3.2c-0.3,0-0.5-0.2-0.5-0.5c0-5.1,4.2-9.3,9.3-9.3c5.1,0,9.2,4.1,9.3,9.1c0,0,0,0.1,0,0.1     C21.3,23.1,21.1,23.4,20.8,23.4z M15.9,22.4h4.4C20,18,16.4,14.6,12,14.6c-4.4,0-8,3.5-8.3,7.8h4.4c0.2-1.9,1.9-3.4,3.9-3.4     C14,18.9,15.7,20.4,15.9,22.4z"/></g></g><g><g><path d="M16.9,11.6c-0.1,0-0.3,0-0.4-0.1C14,9,10,9,7.5,11.5c-0.2,0.2-0.5,0.2-0.7,0c-0.2-0.2-0.2-0.5,0-0.7     c2.9-2.9,7.6-2.9,10.5,0c0.2,0.2,0.2,0.5,0,0.7C17.1,11.6,17,11.6,16.9,11.6z"/></g><g><path d="M19.7,8.8c-0.1,0-0.3,0-0.4-0.1c-2-2-4.6-3.1-7.4-3.1c0,0,0,0,0,0c-2.8,0-5.4,1.1-7.3,3c-0.2,0.2-0.5,0.2-0.7,0     c-0.2-0.2-0.2-0.5,0-0.7c2.1-2.2,5-3.3,8.1-3.3c0,0,0,0,0,0c3,0,5.9,1.2,8.1,3.3c0.2,0.2,0.2,0.5,0,0.7C20,8.7,19.8,8.8,19.7,8.8     z"/></g><g><path d="M22.5,6c-0.1,0-0.3,0-0.4-0.1c-5.6-5.6-14.7-5.6-20.3,0C1.7,6,1.3,6,1.1,5.9S1,5.3,1.1,5.1c6-6,15.7-6,21.7,0     c0.2,0.2,0.2,0.5,0,0.7C22.8,5.9,22.6,6,22.5,6z"/></g></g></g></svg>