<?xml version="1.0" standalone="no"?>
<!DOCTYPE svg PUBLIC "-//W3C//DTD SVG 20010904//EN"
 "http://www.w3.org/TR/2001/REC-SVG-20010904/DTD/svg10.dtd">
<svg version="1.0" xmlns="http://www.w3.org/2000/svg"
 width="200.000000pt" height="200.000000pt" viewBox="0 0 200.000000 200.000000"
 preserveAspectRatio="xMidYMid meet">

<g transform="translate(0.000000,200.000000) scale(0.100000,-0.100000)"
fill="#000000" stroke="none">
<path d="M935 1933 c-16 -9 -50 -33 -74 -54 -44 -39 -44 -39 -111 -33 -124 12
-175 -24 -205 -145 -17 -71 -18 -72 -81 -113 -105 -69 -121 -123 -72 -240 22
-52 21 -72 -12 -163 -28 -76 -18 -118 41 -169 l41 -35 -161 -293 c-101 -183
-161 -303 -161 -321 0 -15 7 -41 15 -56 23 -45 59 -54 182 -46 l108 6 48 -95
c52 -103 77 -126 138 -126 50 0 83 45 229 312 74 136 137 245 141 243 3 -3 55
-93 114 -202 161 -296 181 -328 210 -341 74 -34 119 -4 181 120 l45 90 119 -7
119 -8 36 36 c58 58 55 65 -125 395 l-160 292 39 35 c69 63 74 102 25 227 -18
47 -18 47 6 105 49 116 27 185 -78 246 -56 33 -57 35 -75 103 -32 126 -76 159
-199 150 l-76 -5 -44 38 c-81 71 -141 87 -203 54z m130 -168 c61 -49 93 -58
185 -53 l62 3 17 -66 c22 -86 40 -112 109 -156 31 -20 59 -37 61 -39 2 -2 -8
-33 -23 -69 -33 -82 -33 -120 0 -198 l26 -61 -23 -19 c-13 -10 -44 -32 -69
-50 -45 -33 -68 -74 -90 -163 l-10 -41 -78 5 c-88 5 -119 -6 -185 -64 -20 -19
-42 -34 -48 -34 -6 0 -31 18 -57 39 -63 53 -93 63 -181 59 l-75 -3 -17 68
c-22 87 -38 110 -107 154 -31 20 -59 37 -60 39 -2 1 8 36 22 77 32 92 32 107
1 182 -14 33 -25 65 -25 71 0 6 25 27 56 45 64 39 91 78 115 163 l16 61 75 -3
c86 -4 124 8 183 61 22 20 46 36 53 37 7 0 37 -20 67 -45z m519 -1142 c64
-116 116 -215 116 -219 0 -3 -46 -3 -103 1 -120 8 -113 13 -179 -112 l-44 -81
-127 231 -127 231 28 29 c25 26 32 28 92 26 36 -1 77 -1 92 0 37 1 94 54 109
98 8 25 14 32 19 22 4 -8 60 -109 124 -226z m-961 120 c23 -12 56 -17 119 -18
80 0 90 -2 113 -26 l26 -25 -121 -220 c-67 -120 -125 -223 -130 -228 -5 -5
-26 26 -48 70 -59 117 -60 118 -186 109 l-105 -7 126 227 127 227 23 -46 c14
-27 36 -53 56 -63z"/>
<path d="M983 1572 c-7 -4 -27 -39 -44 -77 -18 -39 -37 -73 -43 -77 -6 -4 -40
-10 -76 -14 -121 -12 -130 -38 -41 -129 l59 -60 -16 -76 c-9 -41 -13 -83 -9
-92 10 -27 50 -20 116 18 32 19 65 35 71 35 6 0 40 -16 74 -35 69 -38 103 -44
113 -19 3 9 0 52 -7 96 l-13 80 62 62 c33 34 61 66 61 73 0 23 -35 38 -109 48
l-76 10 -35 73 c-40 83 -59 102 -87 84z"/>
</g>
</svg>
