<?xml version="1.0" standalone="no"?>
<!DOCTYPE svg PUBLIC "-//W3C//DTD SVG 20010904//EN"
 "http://www.w3.org/TR/2001/REC-SVG-20010904/DTD/svg10.dtd">
<svg version="1.0" xmlns="http://www.w3.org/2000/svg"
 width="512.000000pt" height="512.000000pt" viewBox="0 0 512.000000 512.000000"
 preserveAspectRatio="xMidYMid meet">

<g transform="translate(0.000000,512.000000) scale(0.100000,-0.100000)"
fill="#000000" stroke="none">
<path d="M2530 4755 c-1108 -150 -2046 -278 -2084 -284 -189 -31 -355 -185
-396 -365 -7 -31 -10 -503 -10 -1415 0 -1344 0 -1369 20 -1434 39 -127 137
-239 259 -295 39 -18 603 -136 2147 -448 1152 -233 2112 -424 2134 -424 157 0
327 97 410 236 74 123 69 -47 69 2226 1 1451 -2 2052 -10 2090 -47 224 -257
392 -483 387 -23 0 -948 -124 -2056 -274z m2156 -129 l34 -34 0 -896 0 -896
-987 2 -988 3 0 805 0 804 865 117 c476 65 876 120 890 122 14 2 54 5 89 6 59
1 65 -1 97 -33z m-2308 -1043 l-3 -778 -985 0 -985 0 -3 603 c-2 661 -3 649
56 684 18 10 158 34 407 67 209 29 621 85 915 125 294 41 550 74 568 75 l32 1
-2 -777z m2 -1908 c0 -643 -2 -765 -14 -765 -7 0 -137 25 -287 56 -151 30
-573 116 -938 190 -372 75 -675 141 -689 150 -51 34 -52 43 -52 609 l0 525
990 0 990 0 0 -765z m2340 -191 l0 -956 -34 -34 c-44 -44 -64 -44 -286 2 -413
84 -1649 334 -1654 334 -4 0 -6 362 -6 805 l0 805 990 0 990 0 0 -956z"/>
</g>
</svg>
